<?xml version="1.0" standalone="no"?>
<!DOCTYPE svg PUBLIC "-//W3C//DTD SVG 20010904//EN"
 "http://www.w3.org/TR/2001/REC-SVG-20010904/DTD/svg10.dtd">
<svg version="1.0" xmlns="http://www.w3.org/2000/svg"
 width="700.000000pt" height="700.000000pt" viewBox="0 0 700.000000 700.000000"
 preserveAspectRatio="xMidYMid meet">
<metadata>
Created by potrace 1.14, written by Peter Selinger 2001-2017
</metadata>
<g transform="translate(0.000000,700.000000) scale(0.100000,-0.100000)"
fill="#000000" stroke="none">
<path d="M3373 6176 c-84 -21 -162 -64 -268 -150 -168 -135 -352 -329 -485
-514 -45 -62 -175 -271 -182 -293 -2 -7 -38 6 -95 35 -257 129 -521 210 -679
209 -232 -1 -435 -147 -511 -368 -20 -58 -57 -201 -67 -258 -3 -15 -7 -35 -10
-45 -3 -9 -7 -37 -10 -62 -3 -25 -8 -63 -11 -85 -22 -184 -22 -364 0 -562 2
-23 0 -23 -114 -24 -64 0 -129 -2 -146 -4 -16 -2 -57 -6 -90 -9 -33 -3 -73 -8
-90 -11 -29 -5 -95 -17 -105 -20 -5 -1 -57 -11 -95 -19 -39 -8 -111 -40 -162
-72 -114 -72 -207 -203 -237 -334 -26 -112 -16 -216 39 -376 46 -137 149 -358
206 -442 16 -23 29 -45 29 -48 0 -5 54 -86 72 -109 5 -5 32 -41 61 -80 75
-101 98 -126 242 -270 156 -156 171 -169 305 -271 251 -192 470 -320 820 -477
124 -55 380 -144 515 -178 105 -27 279 -65 330 -73 22 -3 51 -8 65 -11 28 -5
81 -12 155 -21 28 -3 66 -7 85 -10 212 -24 909 -24 1115 0 17 2 57 7 90 10 75
8 123 15 155 21 14 3 43 8 65 10 34 5 267 56 315 69 8 3 40 11 70 19 233 63
608 218 830 345 427 243 737 504 1007 848 164 209 347 573 397 791 60 262 -75
528 -321 631 -44 19 -87 30 -218 58 -20 4 -141 19 -225 28 -25 3 -98 5 -163 5
-108 1 -118 3 -113 19 6 21 17 190 18 280 0 74 -11 269 -17 292 -2 8 -7 39
-10 69 -3 30 -8 57 -10 61 -2 3 -7 29 -11 56 -10 82 -71 280 -106 346 -48 93
-138 178 -240 227 -148 71 -270 74 -482 11 -172 -50 -246 -78 -395 -150 -68
-33 -125 -59 -126 -58 -1 2 -20 35 -41 73 -122 225 -372 528 -574 696 -36 30
-67 56 -70 59 -44 47 -166 113 -247 134 -64 17 -195 18 -260 2z"/>
</g>
</svg>
